<?xml version="1.0" encoding="UTF-8"?>
<svg id="Layer_2" data-name="Layer 2" xmlns="http://www.w3.org/2000/svg" width="96.09" height="93.9" viewBox="0 0 96.09 93.9">
  <defs>
    <style>
      .cls-1 {
        fill: #e30613;
      }
    </style>
  </defs>
  <g id="Livello_1" data-name="Livello 1">
    <path class="cls-1" d="M62.41,50.33c-9.2.25-17.94,3-26.07,7.28-8.25,4.01-16.08,9.04-22.98,15.09-3.71,3.44-8.72,7.97-7.92,13.32.5,2.02,2.76,2.5,4.64,2.61,5.58.19,11.61-2.04,16.58-4.81,10.98-5.53,16.39-17.24,18.23-29.01,1.56-7.69,1.46-15.6,3.49-23.28,2.45-11.41,10.42-20.79,20.51-26.3,5.94-3.15,12.7-6.02,19.66-5.02,4.91.7,8.5,5.2,7.29,10.21-.85,3.85-3.24,6.54-5.8,9.12-2.4,2.32-4.8,4.49-7.36,6.44-15.27,11.55-33.88,17.4-52.33,21.47-1.08.25-2.15-.42-2.4-1.49-.26-1.11.47-2.22,1.58-2.42,3.05-.57,6.08-1.21,9.09-1.92,11.98-2.67,23.62-7.2,34.1-13.52,6.72-4.48,15.53-10.39,16.83-18.73.06-.79.02-1.39-.33-1.95-.45-.54-1.3-1.07-2.14-1.33-6.65-2.22-14.31,1.48-19.93,5.27-12.76,8.27-15.95,20.39-17.05,34.76-2.31,22.23-7.78,37.2-30.2,45.56-4.81,1.73-10.52,3.51-15.72.96-4.24-2.11-5.24-7.69-3.17-11.48,2.33-4.57,6.06-8.12,9.73-11.41,7.25-6.22,15.4-11.22,23.95-15.44,8.44-4.45,17.89-7.44,27.49-7.96,2.66-.11,2.88,3.82.2,3.99h0Z"/>
  </g>
</svg>